<?xml version="1.0" encoding="UTF-8"?>
<svg id="Layer_1" xmlns="http://www.w3.org/2000/svg" version="1.1" viewBox="0 0 465.3 471.1">
  <!-- Generator: Adobe Illustrator 29.3.1, SVG Export Plug-In . SVG Version: 2.1.0 Build 151)  -->
  <defs>
    <style>
      .st0 {
        fill: #fff;
      }

      .st1 {
        fill: #41aac0;
      }

      .st2 {
        fill: #2e6b97;
      }
    </style>
  </defs>
  <rect class="st0" x="5.1" y="4.3" width="451.8" height="451.8" rx="66.9" ry="66.9"/>
  <g>
    <path class="st1" d="M286.5,211.4c12.5,0,22.6-10.1,22.6-22.6s-10.1-22.6-22.6-22.6-22.6,10.1-22.6,22.6,10.1,22.6,22.6,22.6ZM286.5,177.2c6.4,0,11.6,5.2,11.6,11.6s-5.2,11.6-11.6,11.6-11.6-5.2-11.6-11.6,5.2-11.6,11.6-11.6Z"/>
    <path class="st1" d="M66.9,285.4c12.5,0,22.6-10.1,22.6-22.6s-10.1-22.6-22.6-22.6-22.6,10.1-22.6,22.6,10.1,22.6,22.6,22.6ZM66.9,251.2c6.4,0,11.6,5.2,11.6,11.6s-5.2,11.6-11.6,11.6-11.6-5.2-11.6-11.6,5.2-11.6,11.6-11.6Z"/>
    <path class="st1" d="M108.3,195.9c8.2,0,14.8-6.7,14.8-14.8s-6.7-14.8-14.8-14.8-14.8,6.7-14.8,14.8,6.7,14.8,14.8,14.8ZM108.3,177.2c2.1,0,3.9,1.7,3.9,3.9s-1.7,3.9-3.9,3.9-3.9-1.7-3.9-3.9,1.7-3.9,3.9-3.9Z"/>
    <path class="st2" d="M426.6,341h-43.8c4.8-4,9.4-8.8,13.5-14.3,11.2-14.7,16.1-29.3,16.3-29.9,0,0,0-.1,0-.2,0-.2.1-.5.2-.7,0-.1,0-.2,0-.4,0-.2,0-.4,0-.6,0-.1,0-.2,0-.4,0-.3,0-.6,0-.8,0-.1,0-.3,0-.4,0-.2,0-.3,0-.5,0-.2,0-.3,0-.5,0-.1,0-.3-.1-.4,0-.2,0-.3-.1-.5,0-.1,0-.2-.1-.4-.1-.3-.3-.6-.4-.9,0,0,0-.2-.1-.3-.1-.2-.2-.3-.3-.5,0,0-.1-.2-.2-.2,0-.1-.1-.2-.2-.3,0,0-.1-.1-.2-.2,0,0,0,0,0,0,0,0,0,0,0,0-.5-.5-1.1-1-1.7-1.4,0,0-.1,0-.2-.1-.2-.1-.4-.2-.6-.3,0,0-.1,0-.2,0-.7-.3-1.4-.5-2.1-.6,0,0,0,0,0,0-.2,0-.5,0-.7,0,0,0-.1,0-.2,0-.2,0-.5,0-.7,0,0,0,0,0,0,0-.3,0-.5,0-.8,0-.1,0-13.4,2-28.3.9-12.7-.9-29.1-4.3-35.3-15-15.2-26.1-64.3-33.8-99.4-35.9v-22.9c0-4.5-3.7-8.2-8.2-8.2h-25.5v-22.2c0-4.5-3.7-8.2-8.2-8.2h-11.7V57.4c0-4.5-3.7-8.2-8.2-8.2s-8.2,3.7-8.2,8.2v117.3h-11.7c-4.5,0-8.2,3.7-8.2,8.2v22.2h-25.5c-4.5,0-8.2,3.7-8.2,8.2v30.4c0,2.3.9,4.4,2.5,5.9-7.3,9.9-15.5,25.5-15.5,46.6s6.9,34.7,20.7,44.9H35.4c-4.5,0-8.2,3.7-8.2,8.2s3.7,8.2,8.2,8.2h391.2c4.5,0,8.2-3.7,8.2-8.2s-3.7-8.2-8.2-8.2ZM259.2,341c-34.1,0-50-20-50-63s-3.3-20.2-7.9-26.1h15.4c2.2,0,19,1.5,19.1,34.8,0,.4,0,.8,0,1.2.3,22.5,11.3,40.9,32.1,53.2h-8.7ZM165.1,251.8h3.3c1.3,1.2,3.1,2,5,2.1,0,0,4.9.4,9.7,3.4,6.5,4.1,9.7,10.8,9.7,20.7,0,21.7,3.7,38.4,11.3,51.3,2.5,4.2,5.4,7.9,8.6,11.2-32.8-3.6-47.6-26.3-47.6-48.8v-39.9ZM277.4,327.5c-14.5-8.2-22.8-19.6-24.7-33.8,10.5-1.2,33.5-.7,62.9,17.6,12,7.5,25,11.3,38.4,11.3s18.5-1.8,27.9-5.3c.4-.2.9-.3,1.3-.5-9.4,12.2-23.9,24.2-44.5,24.2s-46-4.8-61.3-13.5ZM281.6,257.9c23.4,5,38.7,12.7,44.3,22.4,7.7,13.3,23.4,21,46.6,23-13.4,4.3-30.5,5.1-48.2-5.9-32.3-20.1-58.7-21.4-72.5-20-.9-9.7-3.4-17.9-7.3-24.5,11.6.8,24.6,2.4,37.1,5ZM167,191.1h23.5v14h-23.5v-14ZM133.3,221.5h91v14h-91v-14ZM139,251.8h9.7v39.9c0,16.9,6.3,32.8,17.6,44.6,1.1,1.2,2.3,2.3,3.7,3.5-44-5.2-49.7-26.9-49.7-43.8,0-24.2,13.5-39.3,18.7-44.2Z"/>
  </g>
</svg>