<?xml version="1.0" encoding="UTF-8"?>
<svg id="Layer_1" xmlns="http://www.w3.org/2000/svg" version="1.1" viewBox="0 0 1729 416.3">
  <!-- Generator: Adobe Illustrator 29.3.1, SVG Export Plug-In . SVG Version: 2.1.0 Build 151)  -->
  <defs>
    <style>
      .st0 {
        fill: #141414;
      }

      .st1 {
        fill: #fff;
      }

      .st2 {
        fill: #41aac0;
      }

      .st3 {
        fill: #2e6b97;
      }
    </style>
  </defs>
  <g>
    <path class="st2" d="M335.6,217.2c15.2,0,27.7-12.4,27.7-27.7s-12.4-27.7-27.7-27.7-27.7,12.4-27.7,27.7,12.4,27.7,27.7,27.7ZM335.6,175.3c7.9,0,14.2,6.4,14.2,14.2s-6.4,14.2-14.2,14.2-14.2-6.4-14.2-14.2,6.4-14.2,14.2-14.2Z"/>
    <path class="st2" d="M66.8,307.8c15.2,0,27.7-12.4,27.7-27.7s-12.4-27.7-27.7-27.7-27.7,12.4-27.7,27.7,12.4,27.7,27.7,27.7ZM66.8,265.9c7.9,0,14.2,6.4,14.2,14.2s-6.4,14.2-14.2,14.2-14.2-6.4-14.2-14.2,6.4-14.2,14.2-14.2Z"/>
    <path class="st2" d="M117.4,198.2c10,0,18.2-8.1,18.2-18.2s-8.1-18.2-18.2-18.2-18.2,8.1-18.2,18.2,8.1,18.2,18.2,18.2ZM117.4,175.3c2.6,0,4.8,2.1,4.8,4.8s-2.1,4.8-4.8,4.8-4.8-2.1-4.8-4.8,2.1-4.8,4.8-4.8Z"/>
    <path class="st3" d="M507.2,375.8h-53.6c5.9-4.9,11.5-10.8,16.6-17.5,13.8-18,19.8-35.9,20-36.6,0,0,0-.1,0-.2,0-.3.2-.6.2-.9,0-.1,0-.3,0-.4,0-.2,0-.5,0-.7,0-.2,0-.3,0-.5,0-.3,0-.7,0-1,0-.2,0-.4,0-.5,0-.2,0-.4,0-.6,0-.2,0-.4-.1-.6,0-.2,0-.3-.1-.5,0-.2-.1-.4-.2-.6,0-.2-.1-.3-.2-.5-.2-.4-.3-.7-.5-1.1,0-.1-.1-.2-.2-.3-.1-.2-.3-.4-.4-.6,0,0-.1-.2-.2-.3,0-.1-.2-.3-.3-.4,0,0-.2-.2-.2-.2,0,0,0,0,0,0,0,0,0,0-.1-.1-.6-.7-1.3-1.2-2.1-1.7,0,0-.2,0-.2-.1-.2-.1-.5-.2-.7-.4,0,0-.2,0-.3-.1-.8-.4-1.7-.6-2.6-.7,0,0,0,0,0,0-.3,0-.6,0-.8,0,0,0-.1,0-.2,0-.3,0-.6,0-.8,0,0,0,0,0,0,0-.3,0-.6,0-1,0-.2,0-16.4,2.5-34.6,1.1-15.5-1.1-35.6-5.2-43.2-18.4-18.6-32-78.7-41.4-121.7-44v-28c0-5.6-4.5-10.1-10.1-10.1h-31.3v-27.1c0-5.6-4.5-10.1-10.1-10.1h-14.4V28.6c0-5.6-4.5-10.1-10.1-10.1s-10.1,4.5-10.1,10.1v143.6h-14.4c-5.6,0-10.1,4.5-10.1,10.1v27.1h-31.3c-5.6,0-10.1,4.5-10.1,10.1v37.2c0,2.8,1.2,5.3,3,7.2-9,12.1-18.9,31.3-18.9,57s8.5,42.5,25.3,55H28.2c-5.6,0-10.1,4.5-10.1,10.1s4.5,10.1,10.1,10.1h479c5.6,0,10.1-4.5,10.1-10.1s-4.5-10.1-10.1-10.1ZM302.2,375.8c-41.8,0-61.2-24.5-61.2-77.2s-4.1-24.7-9.7-32h18.9c2.7,0,23.3,1.8,23.4,42.6,0,.5,0,1,0,1.5.3,27.6,13.9,50.1,39.3,65.1h-10.7ZM187,266.7h4c1.6,1.5,3.8,2.4,6.2,2.6,0,0,6,.5,11.8,4.1,8,5,11.9,13.2,11.9,25.3,0,26.5,4.5,47.1,13.8,62.8,3,5.2,6.6,9.7,10.5,13.7-40.1-4.4-58.2-32.2-58.2-59.7v-48.8ZM324.5,359.3c-17.7-10.1-27.9-24-30.3-41.4,12.9-1.4,41-.9,77,21.6,14.7,9.2,30.6,13.8,47,13.8s22.7-2.2,34.2-6.5c.6-.2,1.1-.4,1.6-.6-11.5,14.9-29.2,29.7-54.5,29.7s-56.4-5.9-75.1-16.5ZM329.6,274.1c28.6,6.1,47.4,15.6,54.2,27.4,9.4,16.2,28.6,25.7,57.1,28.1-16.4,5.2-37.4,6.3-59-7.2-39.6-24.6-71.9-26.2-88.8-24.5-1.2-11.9-4.1-21.9-8.9-30,14.2,1,30.1,2.9,45.4,6.2ZM189.3,192.3h28.7v17.1h-28.7v-17.1ZM148,229.5h111.4v17.1h-111.4v-17.1ZM155,266.7h11.9v48.8c0,20.7,7.7,40.1,21.6,54.6,1.4,1.4,2.8,2.9,4.5,4.3-53.9-6.4-60.8-33-60.8-53.6,0-29.6,16.6-48.1,22.9-54.1Z"/>
  </g>
  <g>
    <path class="st3" d="M432.2,169.9c-12.3-6.4-21.9-15.4-28.8-26.9-7-11.5-10.4-24.6-10.4-39.2s3.5-27.7,10.4-39.2c7-11.5,16.6-20.5,28.8-26.9,12.3-6.4,26-9.6,41.3-9.6s26.6,2.5,37.6,7.4c11,5,20.1,12.1,27.3,21.5l-30.8,27.5c-9-11.3-19.5-16.9-31.6-16.9s-18.4,3.3-24.6,9.8c-6.2,6.5-9.3,15.3-9.3,26.4s3.1,19.8,9.3,26.4c6.2,6.5,14.4,9.8,24.6,9.8s22.7-5.6,31.6-16.9l30.8,27.5c-7.2,9.4-16.3,16.5-27.3,21.5-11,5-23.6,7.4-37.6,7.4s-29.1-3.2-41.3-9.6Z"/>
    <path class="st3" d="M693.4,139.4v36.8h-120.3V31.5h117.6v36.8h-69.7v16.9h61.2v35.1h-61.2v19h72.3Z"/>
    <path class="st3" d="M817.8,123.7v52.5h-48.8v-53.1l-54.6-91.6h51.5l29.6,50,29.8-50h47.1l-54.6,92.2Z"/>
    <path class="st3" d="M899.3,31.5h48.8v106.9h65.3v37.8h-114.1V31.5Z"/>
    <path class="st3" d="M1079.3,169.8c-12.4-6.5-22.1-15.5-29.1-27-7-11.5-10.5-24.5-10.5-39s3.5-27.5,10.5-39c7-11.5,16.7-20.5,29.1-27,12.4-6.5,26.4-9.7,42-9.7s29.6,3.2,42,9.7c12.4,6.5,22.1,15.5,29.1,27,7,11.5,10.5,24.5,10.5,39s-3.5,27.5-10.5,39c-7,11.5-16.7,20.5-29.1,27-12.4,6.5-26.4,9.7-42,9.7s-29.6-3.2-42-9.7ZM1137.7,135.6c4.9-3,8.8-7.2,11.7-12.6,2.9-5.4,4.3-11.8,4.3-19.1s-1.4-13.7-4.3-19.1c-2.9-5.4-6.8-9.6-11.7-12.6-4.9-3-10.4-4.4-16.4-4.4s-11.5,1.5-16.4,4.4c-4.9,3-8.8,7.2-11.7,12.6-2.9,5.4-4.3,11.8-4.3,19.1s1.4,13.7,4.3,19.1c2.9,5.4,6.8,9.6,11.7,12.6,4.9,3,10.4,4.4,16.4,4.4s11.5-1.5,16.4-4.4Z"/>
    <path class="st3" d="M1384,31.5v144.7h-40.1l-55-65.7v65.7h-47.5V31.5h40.1l55,65.7V31.5h47.5Z"/>
  </g>
  <g>
    <path class="st2" d="M534,210.7h38.1c10,0,18.9,2.1,26.6,6.2,7.7,4.1,13.8,9.8,18.1,17.1,4.3,7.3,6.5,15.6,6.5,24.8s-2.2,17.5-6.5,24.8c-4.3,7.3-10.3,13-18.1,17.1-7.7,4.1-16.6,6.2-26.6,6.2h-38.1v-96.2ZM571.6,300.6c8.9,0,16.7-1.8,23.5-5.3,6.8-3.5,12-8.5,15.7-14.8,3.7-6.3,5.5-13.6,5.5-21.7s-1.8-15.4-5.5-21.7c-3.7-6.3-8.9-11.2-15.7-14.8-6.8-3.5-14.6-5.3-23.5-5.3h-30.5v83.6h30.5Z"/>
    <path class="st2" d="M714,300.6v6.3h-66.4v-96.2h64.3v6.3h-57.3v37.9h51.3v6.2h-51.3v39.5h59.4Z"/>
    <path class="st2" d="M806,300.6v6.3h-66.4v-96.2h64.3v6.3h-57.3v37.9h51.3v6.2h-51.3v39.5h59.4Z"/>
    <path class="st2" d="M894.5,219.3c6.9,5.7,10.3,13.7,10.3,23.9s-3.4,18-10.3,23.7c-6.9,5.7-16.4,8.6-28.5,8.6h-27.5v31.5h-7v-96.2h34.5c12.1,0,21.6,2.9,28.5,8.6ZM889.5,262.4c5.4-4.5,8.1-10.9,8.1-19.2s-2.7-14.8-8.1-19.3c-5.4-4.5-13.2-6.8-23.5-6.8h-27.5v52.1h27.5c10.3,0,18.1-2.2,23.5-6.7Z"/>
    <path class="st2" d="M980.3,301.3c-7.6-4.2-13.5-10-17.9-17.5-4.4-7.4-6.5-15.8-6.5-25s2.2-17.6,6.5-25c4.4-7.4,10.3-13.2,17.9-17.5,7.6-4.2,16.1-6.3,25.5-6.3s13.4,1.1,19.2,3.4c5.9,2.2,10.9,5.6,15,10l-4.4,4.5c-7.7-7.6-17.6-11.4-29.6-11.4s-15.4,1.8-22,5.5c-6.6,3.7-11.8,8.7-15.5,15.2-3.8,6.5-5.6,13.7-5.6,21.7s1.9,15.2,5.6,21.7c3.8,6.5,8.9,11.5,15.5,15.2,6.6,3.7,13.9,5.5,22,5.5,11.9,0,21.8-3.8,29.6-11.5l4.4,4.5c-4.1,4.4-9.1,7.7-15.1,10-5.9,2.3-12.3,3.4-19.2,3.4s-17.9-2.1-25.5-6.3Z"/>
    <path class="st2" d="M1063.6,210.7h7v89.9h55.4v6.3h-62.4v-96.2Z"/>
    <path class="st2" d="M1210.4,300.6v6.3h-66.4v-96.2h64.3v6.3h-57.3v37.9h51.3v6.2h-51.3v39.5h59.4Z"/>
    <path class="st2" d="M1295.5,279.9h-55.8l-12.2,27.1h-7.6l44.3-96.2h7l44.3,96.2h-7.6l-12.4-27.1ZM1292.9,274l-25.3-55.5-25.2,55.5h50.5Z"/>
    <path class="st2" d="M1411.2,210.7v96.2h-5.8l-65.6-83.6v83.6h-7v-96.2h5.9l65.4,83.6v-83.6h7Z"/>
    <path class="st2" d="M1511.2,300.6v6.3h-66.4v-96.2h64.3v6.3h-57.3v37.9h51.3v6.2h-51.3v39.5h59.4Z"/>
    <path class="st2" d="M1603.6,307l-23-32.2c-3.4.5-6.5.7-9.3.7h-27.5v31.5h-7v-96.2h34.5c12.1,0,21.6,2.9,28.5,8.6,6.9,5.7,10.3,13.7,10.3,23.9s-1.9,14-5.8,19.2c-3.9,5.2-9.5,8.8-16.7,10.9l24.1,33.7h-8ZM1571.3,269.3c10.3,0,18.1-2.3,23.5-6.8,5.4-4.5,8.1-11,8.1-19.3s-2.7-14.8-8.1-19.3c-5.4-4.5-13.2-6.8-23.5-6.8h-27.5v52.2h27.5Z"/>
    <path class="st2" d="M1640.9,304c-6.4-2.4-11.3-5.6-14.9-9.4l3.2-5.2c3.4,3.6,8,6.5,13.7,8.7,5.7,2.2,11.8,3.4,18.1,3.4,9.2,0,16.1-1.7,20.8-5.2,4.7-3.5,7-8,7-13.6s-1.2-7.7-3.7-10.3c-2.5-2.6-5.5-4.5-9.2-5.9-3.7-1.4-8.6-2.8-14.8-4.3-7.1-1.7-12.7-3.4-17-5.1s-7.9-4.2-10.9-7.6c-3-3.4-4.5-8-4.5-13.8s1.2-9,3.7-12.9c2.5-3.9,6.3-7,11.3-9.3,5.1-2.3,11.4-3.4,19-3.4s10.5.8,15.7,2.3c5.1,1.6,9.6,3.7,13.3,6.3l-2.6,5.6c-3.8-2.7-8.1-4.7-12.7-6-4.6-1.4-9.2-2.1-13.7-2.1-8.9,0-15.6,1.8-20.2,5.4-4.6,3.6-6.9,8.2-6.9,13.9s1.2,7.7,3.7,10.3c2.5,2.6,5.5,4.5,9.2,5.9,3.7,1.4,8.7,2.8,15,4.4,7.1,1.7,12.7,3.4,16.9,5.1,4.2,1.6,7.8,4.1,10.8,7.5,3,3.3,4.5,7.9,4.5,13.5s-1.3,8.9-3.8,12.8c-2.5,3.8-6.4,6.9-11.6,9.2-5.2,2.3-11.6,3.4-19.2,3.4s-13.8-1.2-20.1-3.6Z"/>
  </g>
  <polygon class="st3" points="1421.9 28.2 1695.7 176.2 1421.9 179.5 1421.9 28.2"/>
  <rect class="st0" x="534" y="333.3" width="1161.6" height="62.7" rx="30.1" ry="30.1"/>
  <g>
    <path class="st1" d="M586,370.4v10.4h-5.5v-10.4l-11.6-19.2h5.9l8.7,14.4,8.8-14.4h5.4l-11.6,19.1Z"/>
    <path class="st1" d="M630.1,379.3c-2.4-1.3-4.3-3.1-5.7-5.5s-2.1-4.9-2.1-7.8.7-5.5,2.1-7.8c1.4-2.3,3.3-4.1,5.7-5.5,2.4-1.3,5.1-2,8.2-2s5.7.7,8.2,2c2.4,1.3,4.3,3.1,5.7,5.4,1.4,2.3,2.1,4.9,2.1,7.8s-.7,5.5-2.1,7.8c-1.4,2.3-3.3,4.1-5.7,5.4-2.4,1.3-5.1,2-8.2,2s-5.7-.7-8.2-2ZM643.6,375.1c1.6-.9,2.8-2.1,3.7-3.7.9-1.6,1.4-3.4,1.4-5.3s-.5-3.8-1.4-5.3c-.9-1.6-2.1-2.8-3.7-3.7s-3.4-1.3-5.3-1.3-3.7.4-5.3,1.3c-1.6.9-2.8,2.1-3.7,3.7-.9,1.6-1.4,3.4-1.4,5.3s.5,3.8,1.4,5.3c.9,1.6,2.1,2.8,3.7,3.7,1.6.9,3.4,1.3,5.3,1.3s3.7-.4,5.3-1.3Z"/>
    <path class="st1" d="M687.7,377.8c-2.3-2.3-3.4-5.6-3.4-9.9v-16.7h5.5v16.5c0,5.8,2.5,8.7,7.5,8.7s7.5-2.9,7.5-8.7v-16.5h5.4v16.7c0,4.3-1.1,7.6-3.4,9.9-2.3,2.3-5.4,3.4-9.5,3.4s-7.3-1.1-9.6-3.4Z"/>
    <path class="st1" d="M761.7,380.8l-6-8.7c-.3,0-.6,0-1.1,0h-6.7v8.6h-5.5v-29.6h12.2c2.6,0,4.8.4,6.7,1.3,1.9.8,3.4,2.1,4.4,3.6s1.5,3.5,1.5,5.6-.5,4.1-1.6,5.7c-1.1,1.6-2.6,2.8-4.7,3.6l6.8,9.7h-5.9ZM759.8,357.4c-1.2-1-3.1-1.5-5.5-1.5h-6.4v11.8h6.4c2.4,0,4.2-.5,5.5-1.5,1.2-1,1.9-2.5,1.9-4.4s-.6-3.3-1.9-4.4Z"/>
    <path class="st1" d="M839.6,379.3c-2.4-1.3-4.3-3.1-5.7-5.4-1.4-2.3-2.1-4.9-2.1-7.8s.7-5.5,2.1-7.8c1.4-2.3,3.3-4.1,5.7-5.4,2.4-1.3,5.1-2,8.1-2s4.6.4,6.6,1.3,3.7,2.1,5.1,3.7l-3.5,3.3c-2.1-2.3-4.8-3.5-7.9-3.5s-3.8.4-5.5,1.3-2.9,2.1-3.8,3.7c-.9,1.6-1.4,3.4-1.4,5.4s.5,3.8,1.4,5.4c.9,1.6,2.2,2.8,3.8,3.7s3.4,1.3,5.5,1.3c3.1,0,5.8-1.2,7.9-3.5l3.5,3.4c-1.4,1.6-3.1,2.8-5.1,3.7-2,.8-4.2,1.3-6.7,1.3s-5.7-.7-8.1-2Z"/>
    <path class="st1" d="M889.2,351.3h5.5v24.9h15.5v4.6h-21v-29.6Z"/>
    <path class="st1" d="M961.3,376.2v4.6h-22.2v-29.6h21.6v4.6h-16.1v7.7h14.3v4.5h-14.3v8.2h16.7Z"/>
    <path class="st1" d="M1011.1,374h-14.8l-2.9,6.8h-5.7l13.3-29.6h5.4l13.4,29.6h-5.7l-3-6.8ZM1009.3,369.7l-5.6-12.9-5.5,12.9h11.1Z"/>
    <path class="st1" d="M1074.4,351.3v29.6h-4.5l-16.3-20v20h-5.5v-29.6h4.5l16.3,20v-20h5.5Z"/>
    <path class="st1" d="M1106.8,351.3h5.5v29.6h-5.5v-29.6Z"/>
    <path class="st1" d="M1171.1,351.3v29.6h-4.5l-16.3-20v20h-5.5v-29.6h4.5l16.3,20v-20h5.5Z"/>
    <path class="st1" d="M1223.8,365.7h5.2v11.8c-1.5,1.2-3.3,2.1-5.3,2.8-2,.6-4.1,1-6.3,1s-5.7-.7-8.2-2c-2.4-1.3-4.3-3.1-5.7-5.4-1.4-2.3-2.1-4.9-2.1-7.8s.7-5.5,2.1-7.8c1.4-2.3,3.3-4.1,5.7-5.4,2.4-1.3,5.2-2,8.2-2s4.7.4,6.8,1.2c2,.8,3.7,2,5.1,3.6l-3.5,3.4c-2.3-2.3-5-3.4-8.2-3.4s-3.9.4-5.6,1.3c-1.6.9-2.9,2.1-3.8,3.7s-1.4,3.4-1.4,5.4.5,3.7,1.4,5.3c.9,1.6,2.2,2.8,3.8,3.7,1.6.9,3.5,1.4,5.5,1.4s4.3-.5,6.1-1.5v-9.2Z"/>
    <path class="st1" d="M1315.8,352.5c1.9.8,3.4,2.1,4.4,3.6s1.5,3.5,1.5,5.6-.5,4-1.5,5.6c-1,1.6-2.5,2.8-4.4,3.7-1.9.8-4.1,1.3-6.7,1.3h-6.7v8.5h-5.5v-29.6h12.2c2.6,0,4.8.4,6.7,1.3ZM1314.3,366.1c1.2-1,1.9-2.5,1.9-4.4s-.6-3.3-1.9-4.4c-1.2-1-3.1-1.5-5.5-1.5h-6.4v11.8h6.4c2.4,0,4.2-.5,5.5-1.5Z"/>
    <path class="st1" d="M1369.4,374h-14.8l-2.9,6.8h-5.7l13.3-29.6h5.4l13.4,29.6h-5.7l-3-6.8ZM1367.6,369.7l-5.6-12.9-5.5,12.9h11.1Z"/>
    <path class="st1" d="M1425.8,380.8l-6-8.7c-.3,0-.6,0-1.1,0h-6.7v8.6h-5.5v-29.6h12.2c2.6,0,4.8.4,6.7,1.3,1.9.8,3.4,2.1,4.4,3.6s1.5,3.5,1.5,5.6-.5,4.1-1.6,5.7c-1.1,1.6-2.6,2.8-4.7,3.6l6.8,9.7h-5.9ZM1423.8,357.4c-1.2-1-3.1-1.5-5.5-1.5h-6.4v11.8h6.4c2.4,0,4.2-.5,5.5-1.5,1.2-1,1.9-2.5,1.9-4.4s-.6-3.3-1.9-4.4Z"/>
    <path class="st1" d="M1467.4,355.9h-9.8v-4.6h25.1v4.6h-9.8v24.9h-5.5v-24.9Z"/>
    <path class="st1" d="M1537.6,351.3v29.6h-4.5l-16.3-20v20h-5.5v-29.6h4.5l16.3,20v-20h5.5Z"/>
    <path class="st1" d="M1592.3,376.2v4.6h-22.2v-29.6h21.6v4.6h-16.1v7.7h14.3v4.5h-14.3v8.2h16.7Z"/>
    <path class="st1" d="M1642.3,380.8l-6-8.7c-.3,0-.6,0-1.1,0h-6.7v8.6h-5.5v-29.6h12.2c2.6,0,4.8.4,6.7,1.3,1.9.8,3.4,2.1,4.4,3.6s1.5,3.5,1.5,5.6-.5,4.1-1.6,5.7c-1.1,1.6-2.6,2.8-4.7,3.6l6.8,9.7h-5.9ZM1640.3,357.4c-1.2-1-3.1-1.5-5.5-1.5h-6.4v11.8h6.4c2.4,0,4.2-.5,5.5-1.5,1.2-1,1.9-2.5,1.9-4.4s-.6-3.3-1.9-4.4Z"/>
  </g>
</svg>